<?xml version="1.0" encoding="UTF-8" standalone="no"?>
<!DOCTYPE svg PUBLIC "-//W3C//DTD SVG 20010904//EN"
"http://www.w3.org/TR/2001/REC-SVG-20010904/DTD/svg10.dtd">
<!-- Created with Sodipodi ("http://www.sodipodi.com/") -->
<svg
   version="1"
   x="0.00000000"
   y="0.00000000"
   width="744.094482"
   height="1052.36218"
   id="svg573"
   sodipodi:version="0.33pre"
   sodipodi:docname="/home/njanssen/pictures/svg/StrategoLogoTextless.svg"
   xmlns="http://www.w3.org/2000/svg"
   xmlns:sodipodi="http://sodipodi.sourceforge.net/DTD/sodipodi-0.dtd"
   xmlns:xlink="http://www.w3.org/1999/xlink"
   sodipodi:docbase="/home/njanssen/pictures/svg">
  <sodipodi:namedview
     id="base" />
  <defs
     id="defs575" />
  <path
     d="M 255.045 601.52 L 564.276 601.521 L 409.659 314.686 L 255.045 601.52 z "
     transform="matrix(0.560000,0.000000,0.000000,0.560000,-13.53672,352.8815)"
     style="font-size:12;fill:none;fill-rule:evenodd;stroke:#000000;stroke-width:15.625;stroke-linecap:round;stroke-linejoin:round;stroke-dasharray:none;"
     id="path579" />
  <path
     d="M 255.045 601.52 L 564.276 601.521 L 409.659 314.686 L 255.045 601.52 z "
     transform="matrix(0.560000,0.000000,0.000000,0.560000,332.3100,353.8037)"
     style="font-size:12;fill:none;fill-rule:evenodd;stroke:#000000;stroke-width:15.625;stroke-linecap:round;stroke-linejoin:round;stroke-dasharray:none;"
     id="path581" />
  <path
     d="M 255.045 601.52 L 564.276 601.521 L 409.659 314.686 L 255.045 601.52 z "
     transform="matrix(0.560000,0.000000,0.000000,0.560000,158.9255,353.8037)"
     style="font-size:12;fill:none;fill-rule:evenodd;stroke:#000000;stroke-width:15.625;stroke-linecap:round;stroke-linejoin:round;stroke-dasharray:none;"
     id="path582" />
  <path
     d="M 255.045 601.52 L 564.276 601.521 L 409.659 314.686 L 255.045 601.52 z "
     transform="matrix(1.680000,0.000000,0.000000,1.680000,-299.8942,-319.7453)"
     style="font-size:12;fill:none;fill-rule:evenodd;stroke:#000000;stroke-width:5.20833;stroke-linecap:round;stroke-linejoin:round;stroke-dasharray:none;"
     id="path583" />
  <path
     d="M 388.666 23.0564 L 388.666 596.174 "
     transform="matrix(0.560000,0.000000,0.000000,0.560000,170.9149,197.9422)"
     style="font-size:12;fill:none;fill-rule:evenodd;stroke:#000000;stroke-width:15.625;stroke-linecap:round;stroke-linejoin:round;stroke-dasharray:none;"
     id="path585" />
  <rect
     style="font-size:12;fill:none;fill-rule:evenodd;stroke:#000000;stroke-width:8.75;stroke-dasharray:none;"
     id="rect558"
     width="570"
     x="99.592642"
     y="182.586465"
     height="570"
     ry="30" />
</svg>
